<svg width="40" height="40" viewBox="0 0 40 40" fill="none" xmlns="http://www.w3.org/2000/svg">
<path d="M19.5127 21.8252C18.4127 21.8252 17.5127 20.9252 17.5127 19.8252C17.5127 18.7252 18.4127 17.8252 19.5127 17.8252C20.6127 17.8252 21.5127 18.7252 21.5127 19.8252C21.5127 20.9252 20.6127 21.8252 19.5127 21.8252Z" fill="white"/>
<path d="M20 28.75C22.3206 28.75 24.5462 27.8281 26.1872 26.1872C27.8281 24.5462 28.75 22.3206 28.75 20C28.75 17.6794 27.8281 15.4538 26.1872 13.8128C24.5462 12.1719 22.3206 11.25 20 11.25C17.6794 11.25 15.4538 12.1719 13.8128 13.8128C12.1719 15.4538 11.25 17.6794 11.25 20C11.25 22.3206 12.1719 24.5462 13.8128 26.1872C15.4538 27.8281 17.6794 28.75 20 28.75ZM20 14.375C23.0625 14.4125 25.55 16.975 25.55 20.0625V21.075C25.55 22.1875 24.6375 23.1 23.525 23.1C22.7625 23.1 22.1 22.675 21.75 22.05C21.175 22.625 20.375 22.9875 19.5 22.9875C17.75 22.9875 16.325 21.5625 16.325 19.8125C16.325 18.0625 17.75 16.6375 19.5 16.6375C20.2625 16.6375 20.95 16.9125 21.5 17.35V17.2375C21.5 16.9125 21.7875 16.65 22.1125 16.65C22.4375 16.65 22.7 16.9125 22.7 17.2375V21.0875C22.7 21.3096 22.7882 21.5226 22.9453 21.6797C23.1024 21.8368 23.3154 21.925 23.5375 21.925C23.7596 21.925 23.9726 21.8368 24.1297 21.6797C24.2868 21.5226 24.375 21.3096 24.375 21.0875V20.075C24.375 17.6125 22.4 15.5875 19.9875 15.55C18.7875 15.55 17.65 16 16.8 16.8375C15.95 17.675 15.475 18.8 15.475 20C15.475 22.45 17.475 24.45 19.925 24.45C20.0808 24.45 20.2302 24.5119 20.3404 24.6221C20.4506 24.7323 20.5125 24.8817 20.5125 25.0375C20.5125 25.1933 20.4506 25.3427 20.3404 25.4529C20.2302 25.5631 20.0808 25.625 19.925 25.625C16.825 25.625 14.3 23.1 14.3 20C14.3 18.4875 14.8875 17.0625 15.975 16C17.05 14.925 18.4875 14.35 20 14.375Z" fill="white"/>
<path d="M1.25 8.7625C1.25 7.3725 2.3725 6.25 3.7625 6.25H36.25C37.6363 6.25 38.75 7.38 38.75 8.7625V31.25C38.75 32.6363 37.62 33.75 36.2375 33.75H3.7625C3.43242 33.7505 3.10548 33.6858 2.80043 33.5598C2.49537 33.4337 2.2182 33.2486 1.9848 33.0152C1.75139 32.7818 1.56634 32.5046 1.44025 32.1996C1.31416 31.8945 1.24951 31.5676 1.25 31.2375V8.7625ZM3.75 8.75625V9.3775L11.6875 14.435C11.2187 15.1334 10.8399 15.8881 10.56 16.6813L3.75 12.3413V28.35L10.775 23.8738C11.0994 24.6453 11.5193 25.3731 12.025 26.04L3.85 31.25H36.1688L27.9725 26.0338C28.4784 25.366 28.8983 24.6374 29.2225 23.865L36.25 28.3388V12.35L29.435 16.6875C29.156 15.894 28.778 15.1389 28.31 14.44L36.25 9.38875V8.75375L36.245 8.75H3.75625L3.7525 8.7525L3.75 8.75625Z" fill="white"/>
</svg>
