<svg width="40" height="40" viewBox="0 0 40 40" fill="none" xmlns="http://www.w3.org/2000/svg">
<path d="M23.3336 17.9152V11.7552C23.3336 10.3668 23.0819 10.0885 21.7002 10.0885L17.7836 10.0002C16.5636 10.0002 15.9536 10.0002 15.7069 10.3952C15.4602 10.7902 15.7336 11.3318 16.2786 12.4118C16.5819 13.0118 16.7452 13.4468 16.7452 14.1202V18.5535C16.7452 19.9535 16.7452 20.6552 16.2119 20.8635C15.6786 21.0702 15.2369 20.6002 14.3502 19.6602C12.1835 17.3535 11.0535 14.4735 10.3119 11.3335C10.1585 10.6835 10.0819 10.3585 9.85188 10.1785C9.62188 9.9985 9.29355 10.0002 8.64022 10.0002H4.97355C4.17022 10.0002 3.76855 10.0002 3.51688 10.2835C3.26688 10.5685 3.31522 10.9318 3.41188 11.6568C4.29188 18.2018 10.0469 28.9335 20.6785 29.9568C22.5619 30.1368 23.3336 29.6285 23.3336 27.5652C23.3336 26.3952 23.3086 24.5052 24.7802 24.2568C25.5519 24.1268 26.0702 24.4018 26.9319 25.1235C28.4252 26.3768 29.2086 27.9068 29.7536 29.0685C30.1152 29.8385 30.3836 30.0002 31.2336 30.0002H34.6902C36.4369 30.0002 36.9119 29.5735 36.1336 27.9335C35.2539 26.0943 34.0086 24.4536 32.4736 23.1118C31.4136 22.2002 30.8852 21.7452 30.8569 21.4085C30.8252 21.0735 31.2136 20.5985 31.9902 19.6485C33.4902 17.8118 35.5336 14.9302 36.4869 11.8718C36.9602 10.3552 36.5152 10.0002 34.9802 10.0002H31.8752C30.3702 10.0002 30.3719 9.9485 30.0169 11.6552C29.4402 14.4235 27.5536 17.0852 25.7802 18.8968C24.9386 19.7568 24.4302 20.2752 23.9052 20.0635C23.3802 19.8518 23.3336 19.2085 23.3336 17.9152Z" stroke="white" stroke-width="1.5" stroke-linecap="round" stroke-linejoin="round"/>
</svg>
