<svg width="867" height="823" viewBox="0 0 867 823" fill="none" xmlns="http://www.w3.org/2000/svg">

<animate attributeName="stroke-dasharray" 
         values="0,1000;1000,0;1000,0;0,1000" 
         dur="20s" 
         repeatCount="indefinite" 
         keySplines="0.25 0.25 0.75 0.75" />

<style>
    path {
      animation: pulse 10s ease-in-out infinite;
    }

    @keyframes pulse {
      0% {
        stroke-width: 1;
      }
      50% {
        stroke-width: 3;
      }
      100% {
        stroke-width: 1;
      }
    }
  </style>



<path opacity="0.0526316" d="M-46.1376 729.116C-25.2641 756.886 41.4501 803.357 141.318 767.075C266.154 721.723 314.434 601.506 425.852 539.172C508.086 493.165 729.053 424.105 856.112 500.417" stroke="url(#paint0_linear_88_3851)" stroke-opacity="0.5" stroke-width="1.45842"/>
<path opacity="0.105263" d="M-66.7273 670.898C-48.8709 700.698 12.6204 753.887 115.734 728.243C244.626 696.188 305.208 581.677 422.531 531.33C509.124 494.171 736.099 448.587 854.486 537.762" stroke="url(#paint1_linear_88_3851)" stroke-opacity="0.5" stroke-width="1.45842"/>
<path opacity="0.157895" d="M-82.2816 611.895C-67.638 643.398 -12.0434 702.724 93.1858 687.999C224.722 669.592 296.943 562.04 418.885 524.233C508.888 496.329 739.384 474.72 847.801 575.782" stroke="url(#paint2_linear_88_3851)" stroke-opacity="0.5" stroke-width="1.45842"/>
<path opacity="0.210526" d="M-92.7466 552.636C-81.4762 585.498 -32.3874 650.31 73.8046 646.665C206.545 642.109 289.611 542.695 414.838 517.842C507.264 499.498 738.757 502.101 836.016 613.941" stroke="url(#paint3_linear_88_3851)" stroke-opacity="0.5" stroke-width="1.45842"/>
<path opacity="0.263158" d="M-98.1247 493.657C-90.351 527.516 -48.3059 597.104 57.6854 604.579C190.175 613.923 283.178 523.737 410.316 512.109C504.154 503.528 734.106 530.314 819.142 651.708" stroke="url(#paint4_linear_88_3851)" stroke-opacity="0.5" stroke-width="1.45842"/>
<path opacity="0.315789" d="M-98.4705 435.485C-94.2787 469.972 -59.7378 543.574 44.8915 562.087C175.678 585.228 277.599 505.258 405.256 506.984C499.477 508.257 725.369 558.934 797.25 688.551" stroke="url(#paint5_linear_88_3851)" stroke-opacity="0.5" stroke-width="1.45842"/>
<path opacity="0.368421" d="M-93.898 378.643C-93.3341 413.379 -66.6759 490.188 35.4451 519.537C163.096 556.222 272.818 487.343 399.596 502.403C493.167 513.519 712.525 587.53 770.463 723.951" stroke="url(#paint6_linear_88_3851)" stroke-opacity="0.5" stroke-width="1.45842"/>
<path opacity="0.421053" d="M-84.5736 323.64C-87.6436 358.245 -69.1602 437.42 29.3336 477.282C152.451 527.109 268.771 470.077 393.28 498.307C485.177 519.142 695.597 615.677 738.958 757.407" stroke="url(#paint7_linear_88_3851)" stroke-opacity="0.5" stroke-width="1.45842"/>
<path opacity="0.473684" d="M-70.7123 270.961C-77.3827 305.055 -67.2766 385.728 26.511 435.667C143.745 498.091 265.39 453.53 386.266 494.62C475.482 524.947 674.658 642.948 702.967 788.434" stroke="url(#paint8_linear_88_3851)" stroke-opacity="0.5" stroke-width="1.45842"/>
<path opacity="0.526316" d="M-52.5857 221.065C-62.7833 254.275 -61.1652 335.563 26.8885 395.032C136.956 469.368 262.592 437.767 378.511 491.266C464.067 530.753 649.819 668.927 662.765 816.575" stroke="url(#paint9_linear_88_3851)" stroke-opacity="0.5" stroke-width="1.45842"/>
<path opacity="0.578947" d="M-30.5069 174.386C-44.1201 206.348 -51.0077 287.36 30.3474 355.707C132.041 441.141 260.293 422.845 369.984 488.169C450.945 536.382 621.235 693.215 618.677 841.408" stroke="url(#paint10_linear_88_3851)" stroke-opacity="0.5" stroke-width="1.45842"/>
<path opacity="0.631579" d="M-4.83293 131.318C-21.7125 161.682 -37.0304 241.53 36.7348 318.007C128.941 413.603 258.402 408.813 360.665 485.245C436.142 541.657 589.106 715.431 571.072 862.544" stroke="url(#paint11_linear_88_3851)" stroke-opacity="0.5" stroke-width="1.45842"/>
<path opacity="0.684211" d="M24.0386 92.2175C4.07755 120.651 -19.5028 198.46 45.8643 282.229C127.573 386.939 256.826 395.708 350.539 482.41C419.706 546.403 553.668 735.214 520.355 879.636" stroke="url(#paint12_linear_88_3851)" stroke-opacity="0.5" stroke-width="1.45842"/>
<path opacity="0.736842" d="M55.6755 57.3978C32.8517 83.5891 1.26723 158.507 57.52 248.65C127.836 361.328 255.464 383.559 339.601 479.581C401.7 550.453 515.192 752.233 466.965 892.382" stroke="url(#paint13_linear_88_3851)" stroke-opacity="0.5" stroke-width="1.45842"/>
<path opacity="0.789474" d="M89.6141 27.1214C64.1776 50.7835 24.9351 121.99 71.4573 217.518C129.61 336.929 254.215 372.379 327.854 476.671C382.205 553.645 473.983 766.183 411.371 900.523" stroke="url(#paint14_linear_88_3851)" stroke-opacity="0.5" stroke-width="1.45842"/>
<path opacity="0.842105" d="M125.368 1.60822C97.5979 22.4818 51.1273 89.196 87.4092 189.064C132.762 313.899 252.978 362.18 315.312 473.598C361.32 555.832 430.379 776.799 354.067 903.858" stroke="url(#paint15_linear_88_3851)" stroke-opacity="0.5" stroke-width="1.45842"/>
<path opacity="0.894737" d="M162.431 -18.9807C132.631 -1.12427 79.4412 60.367 105.085 163.481C137.14 292.373 251.652 352.955 301.998 470.278C339.157 556.87 384.741 783.846 295.566 902.232" stroke="url(#paint16_linear_88_3851)" stroke-opacity="0.5" stroke-width="1.45842"/>
<path opacity="0.947368" d="M200.279 -34.5357C168.775 -19.8921 109.449 35.7024 124.175 140.932C142.581 272.468 250.133 344.689 287.94 466.631C315.844 556.634 337.453 787.13 236.392 895.547" stroke="url(#paint17_linear_88_3851)" stroke-opacity="0.5" stroke-width="1.45842"/>
<path d="M238.381 -45C205.519 -33.7296 140.707 15.3591 144.352 121.551C148.909 254.291 248.322 337.358 273.175 462.584C291.519 555.011 288.916 786.503 177.076 883.763" stroke="url(#paint18_linear_88_3851)" stroke-opacity="0.5" stroke-width="1.45842"/>
<defs>
<linearGradient id="paint0_linear_88_3851" x1="-38.2831" y1="753.29" x2="845.023" y2="466.286" gradientUnits="userSpaceOnUse">
<stop stop-color="#B388EB"/>
<stop offset="1" stop-color="#00AEA4"/>
</linearGradient>
<linearGradient id="paint1_linear_88_3851" x1="-61.4426" y1="695.76" x2="847.024" y2="502.659" gradientUnits="userSpaceOnUse">
<stop stop-color="#B388EB"/>
<stop offset="1" stop-color="#00AEA4"/>
</linearGradient>
<linearGradient id="paint2_linear_88_3851" x1="-79.6247" y1="637.173" x2="844.05" y2="540.091" gradientUnits="userSpaceOnUse">
<stop stop-color="#B388EB"/>
<stop offset="1" stop-color="#00AEA4"/>
</linearGradient>
<linearGradient id="paint3_linear_88_3851" x1="-92.7466" y1="578.054" x2="836.016" y2="578.054" gradientUnits="userSpaceOnUse">
<stop stop-color="#B388EB"/>
<stop offset="1" stop-color="#00AEA4"/>
</linearGradient>
<linearGradient id="paint4_linear_88_3851" x1="-100.782" y1="518.935" x2="822.893" y2="616.017" gradientUnits="userSpaceOnUse">
<stop stop-color="#B388EB"/>
<stop offset="1" stop-color="#00AEA4"/>
</linearGradient>
<linearGradient id="paint5_linear_88_3851" x1="-103.755" y1="460.348" x2="804.712" y2="653.448" gradientUnits="userSpaceOnUse">
<stop stop-color="#B388EB"/>
<stop offset="1" stop-color="#00AEA4"/>
</linearGradient>
<linearGradient id="paint6_linear_88_3851" x1="-101.753" y1="402.817" x2="781.553" y2="689.82" gradientUnits="userSpaceOnUse">
<stop stop-color="#B388EB"/>
<stop offset="1" stop-color="#00AEA4"/>
</linearGradient>
<linearGradient id="paint7_linear_88_3851" x1="-94.912" y1="346.86" x2="753.555" y2="724.622" gradientUnits="userSpaceOnUse">
<stop stop-color="#B388EB"/>
<stop offset="1" stop-color="#00AEA4"/>
</linearGradient>
<linearGradient id="paint8_linear_88_3851" x1="-83.4213" y1="292.973" x2="720.911" y2="757.355" gradientUnits="userSpaceOnUse">
<stop stop-color="#B388EB"/>
<stop offset="1" stop-color="#00AEA4"/>
</linearGradient>
<linearGradient id="paint9_linear_88_3851" x1="-67.526" y1="241.629" x2="683.859" y2="787.542" gradientUnits="userSpaceOnUse">
<stop stop-color="#B388EB"/>
<stop offset="1" stop-color="#00AEA4"/>
</linearGradient>
<linearGradient id="paint10_linear_88_3851" x1="-47.5148" y1="193.275" x2="642.69" y2="814.739" gradientUnits="userSpaceOnUse">
<stop stop-color="#B388EB"/>
<stop offset="1" stop-color="#00AEA4"/>
</linearGradient>
<linearGradient id="paint11_linear_88_3851" x1="-23.7221" y1="148.326" x2="597.741" y2="838.531" gradientUnits="userSpaceOnUse">
<stop stop-color="#B388EB"/>
<stop offset="1" stop-color="#00AEA4"/>
</linearGradient>
<linearGradient id="paint12_linear_88_3851" x1="3.47506" y1="107.158" x2="549.388" y2="858.543" gradientUnits="userSpaceOnUse">
<stop stop-color="#B388EB"/>
<stop offset="1" stop-color="#00AEA4"/>
</linearGradient>
<linearGradient id="paint13_linear_88_3851" x1="33.6629" y1="70.1068" x2="498.044" y2="874.439" gradientUnits="userSpaceOnUse">
<stop stop-color="#B388EB"/>
<stop offset="1" stop-color="#00AEA4"/>
</linearGradient>
<linearGradient id="paint14_linear_88_3851" x1="66.3937" y1="37.4599" x2="444.155" y2="885.927" gradientUnits="userSpaceOnUse">
<stop stop-color="#B388EB"/>
<stop offset="1" stop-color="#00AEA4"/>
</linearGradient>
<linearGradient id="paint15_linear_88_3851" x1="101.195" y1="9.4628" x2="388.198" y2="892.769" gradientUnits="userSpaceOnUse">
<stop stop-color="#B388EB"/>
<stop offset="1" stop-color="#00AEA4"/>
</linearGradient>
<linearGradient id="paint16_linear_88_3851" x1="137.569" y1="-13.696" x2="330.669" y2="894.771" gradientUnits="userSpaceOnUse">
<stop stop-color="#B388EB"/>
<stop offset="1" stop-color="#00AEA4"/>
</linearGradient>
<linearGradient id="paint17_linear_88_3851" x1="175" y1="-31.8788" x2="272.082" y2="891.796" gradientUnits="userSpaceOnUse">
<stop stop-color="#B388EB"/>
<stop offset="1" stop-color="#00AEA4"/>
</linearGradient>
<linearGradient id="paint18_linear_88_3851" x1="212.963" y1="-45" x2="212.963" y2="883.763" gradientUnits="userSpaceOnUse">
<stop stop-color="#B388EB"/>
<stop offset="1" stop-color="#00AEA4"/>
</linearGradient>
</defs>
</svg>
